STARTFONT 2.1
FONT -FontForge-Indie Flower-Book-R-Normal--20-200-72-72-P-91-ISO10646-1
SIZE 20 72 72
FONTBOUNDINGBOX 25 30 -3 -10
COMMENT "Generated by fontforge, http://fontforge.sourceforge.net"
COMMENT "Copyright (c) 2010, Kimberly Geswein (kimberlygeswein.com)"
STARTPROPERTIES 39
FOUNDRY "FontForge"
FAMILY_NAME "Indie Flower"
WEIGHT_NAME "Book"
SLANT "R"
SETWIDTH_NAME "Normal"
ADD_STYLE_NAME ""
PIXEL_SIZE 20
POINT_SIZE 200
RESOLUTION_X 72
RESOLUTION_Y 72
SPACING "P"
AVERAGE_WIDTH 91
CHARSET_REGISTRY "ISO10646"
CHARSET_ENCODING "1"
FONTNAME_REGISTRY ""
CHARSET_COLLECTIONS "ISO8859-2 ISO8859-9 ISO8859-4 ISO10646-1"
FONT_NAME "IndieFlower"
FACE_NAME "Indie Flower"
COPYRIGHT "Copyright (c) 2010, Kimberly Geswein (kimberlygeswein.com)"
FONT_VERSION "1.001 2010"
FONT_ASCENT 16
FONT_DESCENT 4
UNDERLINE_POSITION -2
UNDERLINE_THICKNESS 1
X_HEIGHT 7
CAP_HEIGHT 10
RAW_ASCENT 799
RAW_DESCENT 200
NORM_SPACE 8
RELATIVE_WEIGHT 40
RELATIVE_SETWIDTH 50
SUPERSCRIPT_X 0
SUPERSCRIPT_Y 9
SUPERSCRIPT_SIZE 13
SUBSCRIPT_X 0
SUBSCRIPT_Y 2
SUBSCRIPT_SIZE 13
AVG_LOWERCASE_WIDTH 90
AVG_UPPERCASE_WIDTH 106
ENDPROPERTIES
CHARS 356
STARTCHAR space
ENCODING 32
SWIDTH 375 0
DWIDTH 8 0
BBX 1 1 0 0
BITMAP
00
ENDCHAR
STARTCHAR exclam
ENCODING 33
SWIDTH 149 0
DWIDTH 3 0
BBX 3 16 0 0
BITMAP
40
40
40
40
40
40
40
40
40
40
40
00
00
00
E0
C0
ENDCHAR
STARTCHAR quotedbl
ENCODING 34
SWIDTH 234 0
DWIDTH 5 0
BBX 4 6 0 10
BITMAP
10
90
90
50
50
50
ENDCHAR
STARTCHAR numbersign
ENCODING 35
SWIDTH 768 0
DWIDTH 15 0
BBX 15 10 0 0
BITMAP
0280
0240
0240
07FC
7E40
C27E
0FE0
3140
0160
0040
ENDCHAR
STARTCHAR dollar
ENCODING 36
SWIDTH 581 0
DWIDTH 12 0
BBX 11 19 0 0
BITMAP
0200
0280
0280
0380
0FC0
1480
1500
0D00
0500
0780
05C0
0560
0620
C620
6A20
1E20
0FC0
0F00
0A00
ENDCHAR
STARTCHAR percent
ENCODING 37
SWIDTH 636 0
DWIDTH 13 0
BBX 12 12 0 0
BITMAP
0020
7040
4880
8900
8900
7200
0460
0490
0910
0910
1120
10C0
ENDCHAR
STARTCHAR ampersand
ENCODING 38
SWIDTH 457 0
DWIDTH 9 0
BBX 9 14 0 0
BITMAP
1800
1800
1800
1800
1800
1000
1380
3200
2A00
4C00
4400
8C00
9200
7100
ENDCHAR
STARTCHAR quotesingle
ENCODING 39
SWIDTH 102 0
DWIDTH 2 0
BBX 2 5 0 10
BITMAP
80
80
C0
40
40
ENDCHAR
STARTCHAR parenleft
ENCODING 40
SWIDTH 421 0
DWIDTH 8 0
BBX 8 13 0 -1
BITMAP
02
0F
18
10
20
40
40
C0
80
40
40
70
1C
ENDCHAR
STARTCHAR parenright
ENCODING 41
SWIDTH 290 0
DWIDTH 6 0
BBX 5 13 0 -1
BITMAP
60
30
18
08
08
08
08
08
08
10
30
60
C0
ENDCHAR
STARTCHAR asterisk
ENCODING 42
SWIDTH 412 0
DWIDTH 8 0
BBX 8 8 0 4
BITMAP
03
74
3E
7C
AC
4E
06
08
ENDCHAR
STARTCHAR plus
ENCODING 43
SWIDTH 459 0
DWIDTH 9 0
BBX 9 8 0 0
BITMAP
1000
1800
0800
7F80
C800
0800
0800
0800
ENDCHAR
STARTCHAR comma
ENCODING 44
SWIDTH 130 0
DWIDTH 3 0
BBX 2 7 0 -4
BITMAP
C0
40
40
40
C0
80
80
ENDCHAR
STARTCHAR hyphen
ENCODING 45
SWIDTH 375 0
DWIDTH 8 0
BBX 7 1 0 5
BITMAP
FE
ENDCHAR
STARTCHAR period
ENCODING 46
SWIDTH 204 0
DWIDTH 4 0
BBX 3 4 1 0
BITMAP
40
C0
E0
C0
ENDCHAR
STARTCHAR slash
ENCODING 47
SWIDTH 309 0
DWIDTH 6 0
BBX 6 15 0 0
BITMAP
04
04
04
08
08
18
10
10
30
20
20
60
40
C0
80
ENDCHAR
STARTCHAR zero
ENCODING 48
SWIDTH 430 0
DWIDTH 9 0
BBX 8 9 0 0
BITMAP
1C
26
43
41
81
81
43
62
1C
ENDCHAR
STARTCHAR one
ENCODING 49
SWIDTH 318 0
DWIDTH 6 0
BBX 6 12 0 0
BITMAP
04
04
04
0C
1C
28
68
C8
08
08
08
10
ENDCHAR
STARTCHAR two
ENCODING 50
SWIDTH 497 0
DWIDTH 10 0
BBX 9 11 0 0
BITMAP
0600
0900
0900
0180
0080
0180
0100
0100
E200
FE00
3380
ENDCHAR
STARTCHAR three
ENCODING 51
SWIDTH 430 0
DWIDTH 9 0
BBX 8 11 0 0
BITMAP
38
64
02
04
38
7C
02
01
C1
61
1E
ENDCHAR
STARTCHAR four
ENCODING 52
SWIDTH 412 0
DWIDTH 8 0
BBX 8 12 0 0
BITMAP
40
40
40
81
83
83
46
7E
3A
03
03
03
ENDCHAR
STARTCHAR five
ENCODING 53
SWIDTH 571 0
DWIDTH 11 0
BBX 11 13 0 0
BITMAP
0FE0
0800
0800
1000
1800
3E00
0180
0080
0040
8040
80C0
6180
3F00
ENDCHAR
STARTCHAR six
ENCODING 54
SWIDTH 440 0
DWIDTH 9 0
BBX 8 12 0 0
BITMAP
07
09
10
20
40
7C
63
81
81
41
63
3C
ENDCHAR
STARTCHAR seven
ENCODING 55
SWIDTH 412 0
DWIDTH 8 0
BBX 7 11 1 0
BITMAP
E8
18
08
08
08
7E
9A
10
10
10
10
ENDCHAR
STARTCHAR eight
ENCODING 56
SWIDTH 375 0
DWIDTH 8 0
BBX 7 11 0 0
BITMAP
78
44
88
48
30
38
44
42
42
22
1C
ENDCHAR
STARTCHAR nine
ENCODING 57
SWIDTH 300 0
DWIDTH 6 0
BBX 6 12 0 0
BITMAP
78
4C
8C
8C
CC
78
08
08
08
08
08
08
ENDCHAR
STARTCHAR colon
ENCODING 58
SWIDTH 84 0
DWIDTH 2 0
BBX 2 6 0 1
BITMAP
80
C0
00
00
00
80
ENDCHAR
STARTCHAR semicolon
ENCODING 59
SWIDTH 128 0
DWIDTH 3 0
BBX 2 12 0 -4
BITMAP
C0
C0
00
00
00
40
40
40
40
C0
80
80
ENDCHAR
STARTCHAR less
ENCODING 60
SWIDTH 487 0
DWIDTH 10 0
BBX 9 8 0 0
BITMAP
0180
0200
0C00
1000
6000
C000
7E00
0180
ENDCHAR
STARTCHAR equal
ENCODING 61
SWIDTH 524 0
DWIDTH 10 0
BBX 10 5 0 3
BITMAP
7F80
B840
0000
0000
FF80
ENDCHAR
STARTCHAR greater
ENCODING 62
SWIDTH 403 0
DWIDTH 8 0
BBX 7 9 1 0
BITMAP
80
70
1E
06
0C
18
30
C0
80
ENDCHAR
STARTCHAR question
ENCODING 63
SWIDTH 272 0
DWIDTH 5 0
BBX 5 17 0 0
BITMAP
F0
88
08
08
08
18
10
30
20
60
38
00
00
00
00
10
08
ENDCHAR
STARTCHAR at
ENCODING 64
SWIDTH 815 0
DWIDTH 16 0
BBX 16 18 0 0
BITMAP
03C0
0C70
1018
2004
4002
40C3
8331
8419
8421
8831
4822
4876
64DC
2380
1000
0800
0606
03F8
ENDCHAR
STARTCHAR A
ENCODING 65
SWIDTH 562 0
DWIDTH 11 0
BBX 11 15 0 0
BITMAP
1E00
2100
2080
4080
4040
4040
4040
4040
7E40
C1E0
4020
4020
4020
6060
2040
ENDCHAR
STARTCHAR B
ENCODING 66
SWIDTH 741 0
DWIDTH 15 0
BBX 14 14 0 0
BITMAP
1F00
FCC0
0840
0860
0840
0780
05E0
0430
0408
0404
0604
0404
0E0C
03F8
ENDCHAR
STARTCHAR C
ENCODING 67
SWIDTH 515 0
DWIDTH 10 0
BBX 10 13 0 0
BITMAP
0700
0D00
1200
2000
4000
4000
8000
8000
8000
4000
4000
63C0
3E00
ENDCHAR
STARTCHAR D
ENCODING 68
SWIDTH 741 0
DWIDTH 15 0
BBX 14 13 0 0
BITMAP
0C00
FF80
0260
0210
0208
020C
0104
0104
0104
0104
010C
0438
07E0
ENDCHAR
STARTCHAR E
ENCODING 69
SWIDTH 524 0
DWIDTH 10 0
BBX 10 12 0 0
BITMAP
7F80
4000
4000
4000
4780
F800
4000
8000
8000
8000
4380
7FC0
ENDCHAR
STARTCHAR F
ENCODING 70
SWIDTH 514 0
DWIDTH 10 0
BBX 13 12 -1 0
BITMAP
3FE0
D838
0800
0800
0800
0800
3FC0
0800
0C00
0C00
0400
0400
ENDCHAR
STARTCHAR G
ENCODING 71
SWIDTH 571 0
DWIDTH 11 0
BBX 10 11 1 -1
BITMAP
0F80
1000
6000
4000
8F80
80C0
80C0
80C0
C1C0
3EC0
00C0
ENDCHAR
STARTCHAR H
ENCODING 72
SWIDTH 524 0
DWIDTH 10 0
BBX 10 14 0 0
BITMAP
0080
4080
4080
4080
4080
4080
4180
4E80
7880
E080
60C0
20C0
2040
2040
ENDCHAR
STARTCHAR I
ENCODING 73
SWIDTH 167 0
DWIDTH 3 0
BBX 3 11 0 0
BITMAP
80
C0
40
40
40
40
60
20
20
20
20
ENDCHAR
STARTCHAR J
ENCODING 74
SWIDTH 439 0
DWIDTH 9 0
BBX 8 14 0 0
BITMAP
02
02
01
01
01
01
01
C1
41
41
21
11
09
06
ENDCHAR
STARTCHAR K
ENCODING 75
SWIDTH 468 0
DWIDTH 9 0
BBX 9 12 0 0
BITMAP
8200
8400
8800
5000
6000
6000
6000
7000
5800
4C00
4300
4180
ENDCHAR
STARTCHAR L
ENCODING 76
SWIDTH 346 0
DWIDTH 7 0
BBX 7 11 0 0
BITMAP
40
40
40
40
40
40
C0
80
C0
40
3E
ENDCHAR
STARTCHAR M
ENCODING 77
SWIDTH 534 0
DWIDTH 11 0
BBX 10 12 0 0
BITMAP
C080
6080
6180
5380
4E80
4080
4080
40C0
40C0
4040
4040
0040
ENDCHAR
STARTCHAR N
ENCODING 78
SWIDTH 609 0
DWIDTH 12 0
BBX 11 11 1 0
BITMAP
8000
8080
8080
C0C0
C040
C040
A020
B060
9840
8FC0
8700
ENDCHAR
STARTCHAR O
ENCODING 79
SWIDTH 609 0
DWIDTH 12 0
BBX 12 10 0 0
BITMAP
1800
6F00
4180
8040
8020
8020
4010
6020
30E0
1F80
ENDCHAR
STARTCHAR P
ENCODING 80
SWIDTH 627 0
DWIDTH 13 0
BBX 12 12 0 0
BITMAP
7F00
C1C0
8420
0410
0410
0410
0460
07C0
0400
0400
0200
0200
ENDCHAR
STARTCHAR Q
ENCODING 81
SWIDTH 642 0
DWIDTH 13 0
BBX 12 13 1 -2
BITMAP
1800
6E00
8300
82C0
8240
8020
8420
8620
C260
73C0
1F80
0040
0030
ENDCHAR
STARTCHAR R
ENCODING 82
SWIDTH 579 0
DWIDTH 12 0
BBX 11 13 0 -1
BITMAP
FF80
80C0
A040
2060
33C0
1E00
1000
1800
1400
1200
1100
08C0
0060
ENDCHAR
STARTCHAR S
ENCODING 83
SWIDTH 627 0
DWIDTH 13 0
BBX 12 12 0 0
BITMAP
0F80
1060
1000
1000
0800
0600
0180
8060
C010
4010
3030
0FE0
ENDCHAR
STARTCHAR T
ENCODING 84
SWIDTH 581 0
DWIDTH 12 0
BBX 13 12 0 0
BITMAP
FFF0
0218
0200
0200
0200
0300
0100
0100
0100
0100
0180
0180
ENDCHAR
STARTCHAR U
ENCODING 85
SWIDTH 571 0
DWIDTH 11 0
BBX 10 11 1 0
BITMAP
8100
8100
8100
8100
8100
8080
8080
8080
41C0
6640
3800
ENDCHAR
STARTCHAR V
ENCODING 86
SWIDTH 421 0
DWIDTH 8 0
BBX 8 10 0 0
BITMAP
C1
41
63
23
32
32
12
1C
0C
08
ENDCHAR
STARTCHAR W
ENCODING 87
SWIDTH 703 0
DWIDTH 14 0
BBX 14 10 0 0
BITMAP
8010
8018
8018
8008
C208
C20C
4204
4708
7D98
3070
ENDCHAR
STARTCHAR X
ENCODING 88
SWIDTH 534 0
DWIDTH 11 0
BBX 11 12 0 -1
BITMAP
4000
2060
2080
1100
0E00
0C00
1C00
3400
2200
4100
4080
8000
ENDCHAR
STARTCHAR Y
ENCODING 89
SWIDTH 403 0
DWIDTH 8 0
BBX 8 13 0 0
BITMAP
80
C1
41
22
1A
0E
04
04
0C
08
08
08
08
ENDCHAR
STARTCHAR Z
ENCODING 90
SWIDTH 571 0
DWIDTH 11 0
BBX 11 12 0 0
BITMAP
FE00
0300
0100
0100
0100
07C0
3F80
0400
0400
0800
18E0
0F80
ENDCHAR
STARTCHAR bracketleft
ENCODING 91
SWIDTH 477 0
DWIDTH 10 0
BBX 11 16 0 -2
BITMAP
0780
3C00
E000
4000
4000
4000
6000
2000
2000
2000
2000
2000
2000
1000
1FE0
1000
ENDCHAR
STARTCHAR backslash
ENCODING 92
SWIDTH 430 0
DWIDTH 9 0
BBX 8 11 0 0
BITMAP
80
40
60
30
18
08
0C
06
03
01
01
ENDCHAR
STARTCHAR bracketright
ENCODING 93
SWIDTH 430 0
DWIDTH 9 0
BBX 8 19 0 -2
BITMAP
60
FE
02
02
03
01
01
01
01
01
01
01
01
01
01
01
01
7F
7F
ENDCHAR
STARTCHAR asciicircum
ENCODING 94
SWIDTH 375 0
DWIDTH 8 0
BBX 5 4 1 11
BITMAP
20
30
78
C8
ENDCHAR
STARTCHAR underscore
ENCODING 95
SWIDTH 656 0
DWIDTH 13 0
BBX 12 2 1 0
BITMAP
FE00
0FF0
ENDCHAR
STARTCHAR grave
ENCODING 96
SWIDTH 172 0
DWIDTH 3 0
BBX 3 2 0 9
BITMAP
C0
60
ENDCHAR
STARTCHAR a
ENCODING 97
SWIDTH 505 0
DWIDTH 10 0
BBX 10 10 0 0
BITMAP
1C00
2600
0100
0180
3F80
4180
8080
8080
63C0
3F00
ENDCHAR
STARTCHAR b
ENCODING 98
SWIDTH 497 0
DWIDTH 10 0
BBX 10 13 0 0
BITMAP
8000
8000
C000
4000
4000
4000
7C00
6700
4180
4080
20C0
3180
1F00
ENDCHAR
STARTCHAR c
ENCODING 99
SWIDTH 449 0
DWIDTH 9 0
BBX 8 9 0 0
BITMAP
1C
22
42
C0
80
C0
40
60
1F
ENDCHAR
STARTCHAR d
ENCODING 100
SWIDTH 524 0
DWIDTH 10 0
BBX 10 15 0 0
BITMAP
0100
0100
0180
0180
0180
0080
3C80
7680
4180
C0C0
C0C0
C1C0
43C0
6640
3800
ENDCHAR
STARTCHAR e
ENCODING 101
SWIDTH 515 0
DWIDTH 10 0
BBX 10 10 0 0
BITMAP
3E00
6200
4200
C200
8C00
F800
4000
4000
3000
1FC0
ENDCHAR
STARTCHAR f
ENCODING 102
SWIDTH 376 0
DWIDTH 8 0
BBX 9 14 0 0
BITMAP
0E00
1180
2080
2000
2000
2000
2000
3000
FE00
1000
1000
0800
0C00
0400
ENDCHAR
STARTCHAR g
ENCODING 103
SWIDTH 366 0
DWIDTH 7 0
BBX 10 18 -3 -10
BITMAP
0380
0480
08C0
0840
10C0
18C0
0FC0
0640
0040
0040
0040
0040
8040
8040
4040
7040
1F80
0700
ENDCHAR
STARTCHAR h
ENCODING 104
SWIDTH 427 0
DWIDTH 9 0
BBX 8 14 0 0
BITMAP
80
80
80
C0
40
7C
66
42
42
41
41
61
63
23
ENDCHAR
STARTCHAR i
ENCODING 105
SWIDTH 174 0
DWIDTH 4 0
BBX 3 12 0 0
BITMAP
80
40
00
40
40
40
40
60
60
20
20
20
ENDCHAR
STARTCHAR j
ENCODING 106
SWIDTH 200 0
DWIDTH 4 0
BBX 6 21 -2 -9
BITMAP
10
10
00
00
10
08
08
08
0C
0C
04
04
04
04
84
84
C4
44
64
3C
0C
ENDCHAR
STARTCHAR k
ENCODING 107
SWIDTH 403 0
DWIDTH 8 0
BBX 8 12 0 0
BITMAP
80
80
80
44
48
50
70
60
60
70
5C
47
ENDCHAR
STARTCHAR l
ENCODING 108
SWIDTH 120 0
DWIDTH 2 0
BBX 1 11 1 0
BITMAP
80
80
80
80
80
80
80
80
80
80
80
ENDCHAR
STARTCHAR m
ENCODING 109
SWIDTH 750 0
DWIDTH 15 0
BBX 13 8 1 0
BITMAP
F0F0
CB18
8608
8608
8208
8208
8208
8008
ENDCHAR
STARTCHAR n
ENCODING 110
SWIDTH 459 0
DWIDTH 9 0
BBX 8 9 1 0
BITMAP
38
C4
82
82
83
83
81
81
41
ENDCHAR
STARTCHAR o
ENCODING 111
SWIDTH 487 0
DWIDTH 10 0
BBX 9 8 0 0
BITMAP
1E00
2300
4080
8080
8080
4180
6300
3E00
ENDCHAR
STARTCHAR p
ENCODING 112
SWIDTH 520 0
DWIDTH 10 0
BBX 10 14 0 -7
BITMAP
1F00
7180
40C0
C040
D040
DF80
4000
6000
6000
6000
2000
2000
2000
1000
ENDCHAR
STARTCHAR q
ENCODING 113
SWIDTH 412 0
DWIDTH 8 0
BBX 8 16 0 -6
BITMAP
1C
22
43
42
82
82
82
42
7E
1E
02
02
02
02
02
02
ENDCHAR
STARTCHAR r
ENCODING 114
SWIDTH 346 0
DWIDTH 7 0
BBX 7 9 0 0
BITMAP
3C
C2
C0
40
40
40
40
60
20
ENDCHAR
STARTCHAR s
ENCODING 115
SWIDTH 514 0
DWIDTH 10 0
BBX 10 9 0 0
BITMAP
3C00
4200
4200
6000
1F00
0080
80C0
60C0
3F80
ENDCHAR
STARTCHAR t
ENCODING 116
SWIDTH 328 0
DWIDTH 7 0
BBX 6 12 0 0
BITMAP
30
10
10
30
FC
10
10
10
10
10
10
10
ENDCHAR
STARTCHAR u
ENCODING 117
SWIDTH 501 0
DWIDTH 10 0
BBX 10 10 0 0
BITMAP
8000
C100
8100
8100
4180
4180
4380
2680
1CC0
0040
ENDCHAR
STARTCHAR v
ENCODING 118
SWIDTH 389 0
DWIDTH 8 0
BBX 7 8 0 0
BITMAP
80
C2
42
64
24
34
18
08
ENDCHAR
STARTCHAR w
ENCODING 119
SWIDTH 656 0
DWIDTH 13 0
BBX 13 8 0 0
BITMAP
4000
C030
8210
8210
C218
4318
6DB0
38E0
ENDCHAR
STARTCHAR x
ENCODING 120
SWIDTH 448 0
DWIDTH 9 0
BBX 9 9 0 -1
BITMAP
8080
C300
6600
3800
1800
2C00
4600
4300
0100
ENDCHAR
STARTCHAR y
ENCODING 121
SWIDTH 487 0
DWIDTH 10 0
BBX 9 19 0 -10
BITMAP
8100
8080
8080
C080
4080
4080
2180
3E80
0C80
0080
0080
0080
0080
0080
8080
4080
2100
1B00
0600
ENDCHAR
STARTCHAR z
ENCODING 122
SWIDTH 459 0
DWIDTH 9 0
BBX 9 10 0 0
BITMAP
7C00
C200
0200
0400
0F00
7800
1000
3000
3380
3E00
ENDCHAR
STARTCHAR braceleft
ENCODING 123
SWIDTH 393 0
DWIDTH 8 0
BBX 8 20 0 -2
BITMAP
0E
32
60
40
80
80
40
60
1C
1C
36
46
04
08
30
20
40
60
20
1F
ENDCHAR
STARTCHAR bar
ENCODING 124
SWIDTH 149 0
DWIDTH 3 0
BBX 3 13 0 0
BITMAP
80
80
40
40
40
40
40
40
40
40
40
40
60
ENDCHAR
STARTCHAR braceright
ENCODING 125
SWIDTH 440 0
DWIDTH 9 0
BBX 8 24 0 -5
BITMAP
FC
86
42
02
06
0C
18
30
20
1E
30
30
10
08
04
02
02
01
01
01
01
83
66
10
ENDCHAR
STARTCHAR asciitilde
ENCODING 126
SWIDTH 402 0
DWIDTH 8 0
BBX 7 3 0 8
BITMAP
62
9E
80
ENDCHAR
STARTCHAR nonbreakingspace
ENCODING 160
SWIDTH 375 0
DWIDTH 8 0
BBX 1 1 0 0
BITMAP
00
ENDCHAR
STARTCHAR exclamdown
ENCODING 161
SWIDTH 149 0
DWIDTH 3 0
BBX 3 13 0 0
BITMAP
E0
40
00
00
40
40
40
40
40
40
40
40
40
ENDCHAR
STARTCHAR cent
ENCODING 162
SWIDTH 449 0
DWIDTH 9 0
BBX 9 12 0 -1
BITMAP
1000
0800
1C00
2A00
4A00
4800
8800
CC00
4800
6800
3F80
0800
ENDCHAR
STARTCHAR sterling
ENCODING 163
SWIDTH 758 0
DWIDTH 15 0
BBX 15 14 0 0
BITMAP
007C
0086
0082
0100
0100
03F0
1F00
0200
0200
0200
0200
7400
FFE0
7000
ENDCHAR
STARTCHAR currency
ENCODING 164
SWIDTH 618 0
DWIDTH 12 0
BBX 10 11 1 0
BITMAP
8000
CF40
7B80
6080
4040
4040
40C0
2080
7F00
4080
8000
ENDCHAR
STARTCHAR yen
ENCODING 165
SWIDTH 389 0
DWIDTH 8 0
BBX 8 15 0 0
BITMAP
40
41
22
26
24
14
18
08
FC
0E
18
7E
18
10
10
ENDCHAR
STARTCHAR brokenbar
ENCODING 166
SWIDTH 117 0
DWIDTH 2 0
BBX 2 11 0 0
BITMAP
40
40
40
40
40
C0
C0
C0
40
40
40
ENDCHAR
STARTCHAR section
ENCODING 167
SWIDTH 514 0
DWIDTH 10 0
BBX 9 13 1 0
BITMAP
7C00
8300
8100
6000
7F00
8180
8080
C180
3F00
0100
8180
C180
3F00
ENDCHAR
STARTCHAR dieresis
ENCODING 168
SWIDTH 397 0
DWIDTH 8 0
BBX 5 2 1 9
BITMAP
90
D8
ENDCHAR
STARTCHAR copyright
ENCODING 169
SWIDTH 667 0
DWIDTH 13 0
BBX 12 11 1 0
BITMAP
3F00
61C0
4E60
9120
9110
B010
B010
9010
DFB0
60E0
1F00
ENDCHAR
STARTCHAR ordfeminine
ENCODING 170
SWIDTH 266 0
DWIDTH 5 0
BBX 5 5 0 5
BITMAP
30
10
F8
88
78
ENDCHAR
STARTCHAR guillemotleft
ENCODING 171
SWIDTH 755 0
DWIDTH 15 0
BBX 14 10 0 0
BITMAP
0008
001C
01B0
0240
0D80
1200
6700
C3F8
7E08
0180
ENDCHAR
STARTCHAR logicalnot
ENCODING 172
SWIDTH 369 0
DWIDTH 7 0
BBX 6 3 1 5
BITMAP
FC
04
04
ENDCHAR
STARTCHAR hyphen_
ENCODING 173
SWIDTH 375 0
DWIDTH 8 0
BBX 7 1 0 5
BITMAP
FE
ENDCHAR
STARTCHAR registered
ENCODING 174
SWIDTH 708 0
DWIDTH 14 0
BBX 12 12 1 0
BITMAP
0800
3F80
40C0
FF60
B0A0
8890
8F10
8C10
8A10
4920
31C0
0E00
ENDCHAR
STARTCHAR macron
ENCODING 175
SWIDTH 287 0
DWIDTH 6 0
BBX 5 2 1 9
BITMAP
F8
88
ENDCHAR
STARTCHAR degree
ENCODING 176
SWIDTH 254 0
DWIDTH 5 0
BBX 4 5 0 6
BITMAP
70
90
90
90
60
ENDCHAR
STARTCHAR plusminus
ENCODING 177
SWIDTH 459 0
DWIDTH 9 0
BBX 9 9 0 1
BITMAP
1000
1800
0800
0800
7F80
8800
0800
0800
7F80
ENDCHAR
STARTCHAR twosuperior
ENCODING 178
SWIDTH 296 0
DWIDTH 6 0
BBX 5 7 0 4
BITMAP
10
30
08
08
10
D0
78
ENDCHAR
STARTCHAR threesuperior
ENCODING 179
SWIDTH 204 0
DWIDTH 4 0
BBX 4 6 0 5
BITMAP
E0
20
E0
10
90
70
ENDCHAR
STARTCHAR acute
ENCODING 180
SWIDTH 180 0
DWIDTH 4 0
BBX 3 3 0 8
BITMAP
20
40
80
ENDCHAR
STARTCHAR mu
ENCODING 181
SWIDTH 501 0
DWIDTH 10 0
BBX 10 10 0 -1
BITMAP
C000
8100
8100
C180
C180
C180
E280
BC80
80C0
8000
ENDCHAR
STARTCHAR paragraph
ENCODING 182
SWIDTH 413 0
DWIDTH 8 0
BBX 8 11 0 -1
BITMAP
7E
7E
FE
FE
7B
0B
0B
0B
0A
0A
06
ENDCHAR
STARTCHAR periodcentered
ENCODING 183
SWIDTH 212 0
DWIDTH 4 0
BBX 2 2 1 4
BITMAP
40
C0
ENDCHAR
STARTCHAR cedilla
ENCODING 184
SWIDTH 445 0
DWIDTH 9 0
BBX 5 7 3 -6
BITMAP
80
80
80
70
08
88
78
ENDCHAR
STARTCHAR onesuperior
ENCODING 185
SWIDTH 197 0
DWIDTH 4 0
BBX 4 8 0 4
BITMAP
10
10
20
60
A0
20
20
20
ENDCHAR
STARTCHAR ordmasculine
ENCODING 186
SWIDTH 254 0
DWIDTH 5 0
BBX 4 5 0 6
BITMAP
70
90
90
90
60
ENDCHAR
STARTCHAR guillemotright
ENCODING 187
SWIDTH 659 0
DWIDTH 13 0
BBX 11 10 1 0
BITMAP
0800
8600
73C0
1E60
0660
0CC0
1980
3200
CC00
8800
ENDCHAR
STARTCHAR onequarter
ENCODING 188
SWIDTH 626 0
DWIDTH 13 0
BBX 12 15 0 0
BITMAP
0200
1200
1200
1400
3400
5400
A400
2800
2B00
0A20
0A30
1220
11E0
1020
2020
ENDCHAR
STARTCHAR onehalf
ENCODING 189
SWIDTH 566 0
DWIDTH 11 0
BBX 11 15 0 -1
BITMAP
0200
1200
1200
1200
3400
5400
94C0
1540
2840
2840
0840
1040
1780
13E0
2000
ENDCHAR
STARTCHAR threequarters
ENCODING 190
SWIDTH 566 0
DWIDTH 11 0
BBX 11 15 0 -2
BITMAP
0200
6200
9200
2200
6400
1500
9600
7620
0A20
0A60
09A0
0820
1020
1000
1000
ENDCHAR
STARTCHAR questiondown
ENCODING 191
SWIDTH 272 0
DWIDTH 5 0
BBX 6 15 0 0
BITMAP
40
00
00
00
00
60
10
10
30
60
40
40
C0
44
38
ENDCHAR
STARTCHAR Agrave
ENCODING 192
SWIDTH 562 0
DWIDTH 11 0
BBX 11 18 0 0
BITMAP
0C00
0600
0000
1E00
2100
2080
4080
4040
4040
4040
4040
7E40
C1E0
4020
4020
4020
6060
2040
ENDCHAR
STARTCHAR Aacute
ENCODING 193
SWIDTH 562 0
DWIDTH 11 0
BBX 11 19 0 0
BITMAP
0400
1800
1000
0000
1E00
2100
2080
4080
4040
4040
4040
4040
7E40
C1E0
4020
4020
4020
6060
2040
ENDCHAR
STARTCHAR Acircumflex
ENCODING 194
SWIDTH 562 0
DWIDTH 11 0
BBX 11 20 0 0
BITMAP
0800
0C00
0E00
1300
2000
1E00
2100
2080
4080
4040
4040
4040
4040
7E40
C1E0
4020
4020
4020
6060
2040
ENDCHAR
STARTCHAR Atilde
ENCODING 195
SWIDTH 562 0
DWIDTH 11 0
BBX 11 18 0 0
BITMAP
3080
2F00
4000
1E00
2100
2080
4080
4040
4040
4040
4040
7E40
C1E0
4020
4020
4020
6060
2040
ENDCHAR
STARTCHAR Adieresis
ENCODING 196
SWIDTH 562 0
DWIDTH 11 0
BBX 11 19 0 0
BITMAP
1200
1B00
0000
0000
1E00
2100
2080
4080
4040
4040
4040
4040
7E40
C1E0
4020
4020
4020
6060
2040
ENDCHAR
STARTCHAR Aring
ENCODING 197
SWIDTH 562 0
DWIDTH 11 0
BBX 11 18 0 0
BITMAP
0E00
1200
0C00
1E00
2100
2080
4080
4040
4040
4040
4040
7E40
C1E0
4020
4020
4020
6060
2040
ENDCHAR
STARTCHAR AE
ENCODING 198
SWIDTH 960 0
DWIDTH 19 0
BBX 19 15 0 0
BITMAP
1E0000
210000
208000
40BFC0
406000
406000
406000
4063C0
7E7C00
C1E000
402000
402000
402000
6061E0
205FC0
ENDCHAR
STARTCHAR Ccedilla
ENCODING 199
SWIDTH 515 0
DWIDTH 10 0
BBX 10 19 0 -6
BITMAP
0700
0D00
1200
2000
4000
4000
8000
8000
8000
4000
4000
63C0
3E00
1000
1000
0E00
0100
1100
0E00
ENDCHAR
STARTCHAR Egrave
ENCODING 200
SWIDTH 524 0
DWIDTH 10 0
BBX 10 16 0 0
BITMAP
0800
0400
0000
0000
7F80
4000
4000
4000
4780
F800
4000
8000
8000
8000
4380
7FC0
ENDCHAR
STARTCHAR Eacute
ENCODING 201
SWIDTH 524 0
DWIDTH 10 0
BBX 10 16 0 0
BITMAP
0400
0C00
1000
0000
7F80
4000
4000
4000
4780
F800
4000
8000
8000
8000
4380
7FC0
ENDCHAR
STARTCHAR Ecircumflex
ENCODING 202
SWIDTH 524 0
DWIDTH 10 0
BBX 10 18 0 0
BITMAP
0400
0600
0E00
1B00
0000
0000
7F80
4000
4000
4000
4780
F800
4000
8000
8000
8000
4380
7FC0
ENDCHAR
STARTCHAR Edieresis
ENCODING 203
SWIDTH 524 0
DWIDTH 10 0
BBX 10 16 0 0
BITMAP
1200
1B00
0000
0000
7F80
4000
4000
4000
4780
F800
4000
8000
8000
8000
4380
7FC0
ENDCHAR
STARTCHAR Igrave
ENCODING 204
SWIDTH 167 0
DWIDTH 3 0
BBX 3 15 0 0
BITMAP
80
40
00
00
80
C0
40
40
40
40
60
20
20
20
20
ENDCHAR
STARTCHAR Iacute
ENCODING 205
SWIDTH 167 0
DWIDTH 3 0
BBX 4 15 -1 0
BITMAP
10
60
40
80
40
60
20
20
20
20
30
10
10
10
10
ENDCHAR
STARTCHAR Icircumflex
ENCODING 206
SWIDTH 167 0
DWIDTH 3 0
BBX 5 18 -1 0
BITMAP
20
30
38
C8
00
00
00
40
60
20
20
20
20
30
10
10
10
10
ENDCHAR
STARTCHAR Idieresis
ENCODING 207
SWIDTH 167 0
DWIDTH 3 0
BBX 5 14 -2 0
BITMAP
90
D8
00
20
30
10
10
10
10
18
08
08
08
08
ENDCHAR
STARTCHAR Eth
ENCODING 208
SWIDTH 741 0
DWIDTH 15 0
BBX 14 13 0 0
BITMAP
0C00
FF80
0260
0210
0208
020C
07E4
0904
0104
0104
010C
0438
07E0
ENDCHAR
STARTCHAR Ntilde
ENCODING 209
SWIDTH 609 0
DWIDTH 12 0
BBX 11 14 1 0
BITMAP
3080
2F00
2000
8000
8080
8080
C0C0
C040
C040
A020
B060
9840
8FC0
8700
ENDCHAR
STARTCHAR Ograve
ENCODING 210
SWIDTH 609 0
DWIDTH 12 0
BBX 12 14 0 0
BITMAP
0600
0300
0000
0000
1800
6F00
4180
8040
8020
8020
4010
6020
30E0
1F80
ENDCHAR
STARTCHAR Oacute
ENCODING 211
SWIDTH 609 0
DWIDTH 12 0
BBX 12 14 0 0
BITMAP
0200
0400
0800
0000
1800
6F00
4180
8040
8020
8020
4010
6020
30E0
1F80
ENDCHAR
STARTCHAR Ocircumflex
ENCODING 212
SWIDTH 609 0
DWIDTH 12 0
BBX 12 16 0 0
BITMAP
0800
0C00
1C00
3600
0000
0000
1800
6F00
4180
8040
8020
8020
4010
6020
30E0
1F80
ENDCHAR
STARTCHAR Otilde
ENCODING 213
SWIDTH 609 0
DWIDTH 12 0
BBX 12 13 0 0
BITMAP
3080
2F00
2000
1800
6F00
4180
8040
8020
8020
4010
6020
30E0
1F80
ENDCHAR
STARTCHAR Odieresis
ENCODING 214
SWIDTH 609 0
DWIDTH 12 0
BBX 12 14 0 0
BITMAP
0900
0D80
0000
0000
1800
6F00
4180
8040
8020
8020
4010
6020
30E0
1F80
ENDCHAR
STARTCHAR multiply
ENCODING 215
SWIDTH 448 0
DWIDTH 9 0
BBX 6 5 1 1
BITMAP
CC
70
30
58
48
ENDCHAR
STARTCHAR Oslash
ENCODING 216
SWIDTH 609 0
DWIDTH 12 0
BBX 12 15 0 -2
BITMAP
0100
0100
0100
1B00
6F00
4380
8640
8420
8420
4C10
6820
38E0
1F80
1000
2000
ENDCHAR
STARTCHAR Ugrave
ENCODING 217
SWIDTH 571 0
DWIDTH 11 0
BBX 10 14 1 0
BITMAP
0800
0400
0000
8100
8100
8100
8100
8100
8080
8080
8080
41C0
6640
3800
ENDCHAR
STARTCHAR Uacute
ENCODING 218
SWIDTH 571 0
DWIDTH 11 0
BBX 10 14 1 0
BITMAP
0400
1800
1000
8100
8100
8100
8100
8100
8080
8080
8080
41C0
6640
3800
ENDCHAR
STARTCHAR Ucircumflex
ENCODING 219
SWIDTH 571 0
DWIDTH 11 0
BBX 10 18 1 0
BITMAP
0800
0C00
1E00
3200
0000
0000
0000
8100
8100
8100
8100
8100
8080
8080
8080
41C0
6640
3800
ENDCHAR
STARTCHAR Udieresis
ENCODING 220
SWIDTH 571 0
DWIDTH 11 0
BBX 10 14 1 0
BITMAP
2400
3600
0000
8100
8100
8100
8100
8100
8080
8080
8080
41C0
6640
3800
ENDCHAR
STARTCHAR Yacute
ENCODING 221
SWIDTH 403 0
DWIDTH 8 0
BBX 8 17 0 0
BITMAP
02
0C
08
00
80
C1
41
22
1A
0E
04
04
0C
08
08
08
08
ENDCHAR
STARTCHAR Thorn
ENCODING 222
SWIDTH 497 0
DWIDTH 10 0
BBX 9 15 1 -3
BITMAP
8000
8000
8000
8000
8000
F800
CE00
8300
8100
C180
E300
BE00
8000
4000
4000
ENDCHAR
STARTCHAR germandbls
ENCODING 223
SWIDTH 590 0
DWIDTH 12 0
BBX 10 17 1 -3
BITMAP
F000
CC00
8400
8600
8400
B800
9E00
8300
8080
8040
4040
4040
5FC0
4000
4000
C000
4000
ENDCHAR
STARTCHAR agrave
ENCODING 224
SWIDTH 505 0
DWIDTH 10 0
BBX 10 13 0 0
BITMAP
1800
0C00
0000
1C00
2600
0100
0180
3F80
4180
8080
8080
63C0
3F00
ENDCHAR
STARTCHAR aacute
ENCODING 225
SWIDTH 505 0
DWIDTH 10 0
BBX 10 14 0 0
BITMAP
0400
0800
1000
0000
1C00
2600
0100
0180
3F80
4180
8080
8080
63C0
3F00
ENDCHAR
STARTCHAR acircumflex
ENCODING 226
SWIDTH 505 0
DWIDTH 10 0
BBX 10 15 0 0
BITMAP
0400
0C00
0E00
1300
2000
1C00
2600
0100
0180
3F80
4180
8080
8080
63C0
3F00
ENDCHAR
STARTCHAR atilde
ENCODING 227
SWIDTH 505 0
DWIDTH 10 0
BBX 10 14 0 0
BITMAP
3100
4E00
4000
0000
1C00
2600
0100
0180
3F80
4180
8080
8080
63C0
3F00
ENDCHAR
STARTCHAR adieresis
ENCODING 228
SWIDTH 505 0
DWIDTH 10 0
BBX 10 13 0 0
BITMAP
1200
1B00
0000
1C00
2600
0100
0180
3F80
4180
8080
8080
63C0
3F00
ENDCHAR
STARTCHAR aring
ENCODING 229
SWIDTH 505 0
DWIDTH 10 0
BBX 10 13 0 0
BITMAP
0C00
1200
1600
1C00
2600
0100
0180
3F80
4180
8080
8080
63C0
3F00
ENDCHAR
STARTCHAR ae
ENCODING 230
SWIDTH 881 0
DWIDTH 18 0
BBX 17 10 0 0
BITMAP
1C1C00
266600
014200
018200
3F8600
41B800
808000
804000
63E000
3F3F80
ENDCHAR
STARTCHAR ccedilla
ENCODING 231
SWIDTH 449 0
DWIDTH 9 0
BBX 8 15 0 -6
BITMAP
1C
22
42
40
80
C0
40
60
1F
10
10
0E
01
11
0E
ENDCHAR
STARTCHAR egrave
ENCODING 232
SWIDTH 515 0
DWIDTH 10 0
BBX 10 13 0 0
BITMAP
1800
0C00
0000
3E00
6200
4200
C200
8C00
F800
4000
4000
3000
1FC0
ENDCHAR
STARTCHAR eacute
ENCODING 233
SWIDTH 515 0
DWIDTH 10 0
BBX 10 14 0 0
BITMAP
0400
0800
1000
0000
3E00
6200
4200
C200
8C00
F800
4000
4000
3000
1FC0
ENDCHAR
STARTCHAR ecircumflex
ENCODING 234
SWIDTH 515 0
DWIDTH 10 0
BBX 10 15 0 0
BITMAP
0400
0400
0E00
1300
2000
3E00
6200
4200
C200
8C00
F800
4000
4000
3000
1FC0
ENDCHAR
STARTCHAR edieresis
ENCODING 235
SWIDTH 515 0
DWIDTH 10 0
BBX 10 13 0 0
BITMAP
2400
3600
0000
3E00
6200
4200
C200
8C00
F800
4000
4000
3000
1FC0
ENDCHAR
STARTCHAR igrave
ENCODING 236
SWIDTH 174 0
DWIDTH 4 0
BBX 3 12 0 0
BITMAP
C0
60
00
40
40
40
40
60
60
20
20
20
ENDCHAR
STARTCHAR iacute
ENCODING 237
SWIDTH 174 0
DWIDTH 4 0
BBX 3 13 0 0
BITMAP
20
60
80
80
40
40
40
40
60
60
20
20
20
ENDCHAR
STARTCHAR icircumflex
ENCODING 238
SWIDTH 174 0
DWIDTH 4 0
BBX 5 15 -1 0
BITMAP
20
30
38
C8
00
00
20
20
20
20
30
30
10
10
10
ENDCHAR
STARTCHAR idieresis
ENCODING 239
SWIDTH 174 0
DWIDTH 4 0
BBX 5 12 -1 0
BITMAP
48
D8
00
20
20
20
20
30
30
10
10
10
ENDCHAR
STARTCHAR eth
ENCODING 240
SWIDTH 407 0
DWIDTH 8 0
BBX 8 11 0 0
BITMAP
40
F9
0F
1E
22
3F
43
41
C1
42
3E
ENDCHAR
STARTCHAR ntilde
ENCODING 241
SWIDTH 459 0
DWIDTH 9 0
BBX 8 13 1 0
BITMAP
C2
BC
80
00
38
C4
82
82
83
83
81
81
41
ENDCHAR
STARTCHAR ograve
ENCODING 242
SWIDTH 487 0
DWIDTH 10 0
BBX 9 11 0 0
BITMAP
0800
0400
0000
1E00
2300
4080
8080
8080
4180
6300
3E00
ENDCHAR
STARTCHAR oacute
ENCODING 243
SWIDTH 487 0
DWIDTH 10 0
BBX 9 12 0 0
BITMAP
0400
0800
1000
0000
1E00
2300
4080
8080
8080
4180
6300
3E00
ENDCHAR
STARTCHAR ocircumflex
ENCODING 244
SWIDTH 487 0
DWIDTH 10 0
BBX 9 14 0 0
BITMAP
0800
0C00
1E00
3200
0000
0000
1E00
2300
4080
8080
8080
4180
6300
3E00
ENDCHAR
STARTCHAR otilde
ENCODING 245
SWIDTH 487 0
DWIDTH 10 0
BBX 9 11 0 0
BITMAP
3100
2F80
4000
1E00
2300
4080
8080
8080
4180
6300
3E00
ENDCHAR
STARTCHAR odieresis
ENCODING 246
SWIDTH 487 0
DWIDTH 10 0
BBX 9 11 0 0
BITMAP
2400
3600
0000
1E00
2300
4080
8080
8080
4180
6300
3E00
ENDCHAR
STARTCHAR divide
ENCODING 247
SWIDTH 335 0
DWIDTH 7 0
BBX 5 6 1 1
BITMAP
20
20
00
F8
00
40
ENDCHAR
STARTCHAR oslash
ENCODING 248
SWIDTH 487 0
DWIDTH 10 0
BBX 9 9 0 0
BITMAP
0300
1F00
6700
4480
8880
9880
5180
6300
7E00
ENDCHAR
STARTCHAR ugrave
ENCODING 249
SWIDTH 501 0
DWIDTH 10 0
BBX 10 13 0 0
BITMAP
1000
0800
0000
8000
C100
8100
8100
4180
4180
4380
2680
1CC0
0040
ENDCHAR
STARTCHAR uacute
ENCODING 250
SWIDTH 501 0
DWIDTH 10 0
BBX 10 14 0 0
BITMAP
0400
0800
1000
0000
8000
C100
8100
8100
4180
4180
4380
2680
1CC0
0040
ENDCHAR
STARTCHAR ucircumflex
ENCODING 251
SWIDTH 501 0
DWIDTH 10 0
BBX 10 15 0 0
BITMAP
0400
0C00
0E00
1300
2000
8000
C100
8100
8100
4180
4180
4380
2680
1CC0
0040
ENDCHAR
STARTCHAR udieresis
ENCODING 252
SWIDTH 501 0
DWIDTH 10 0
BBX 10 13 0 0
BITMAP
2400
3600
0000
8000
C100
8100
8100
4180
4180
4380
2680
1CC0
0040
ENDCHAR
STARTCHAR yacute
ENCODING 253
SWIDTH 487 0
DWIDTH 10 0
BBX 9 23 0 -10
BITMAP
0400
0800
1000
0000
8100
8080
8080
C080
4080
4080
2180
3E80
0C80
0080
0080
0080
0080
0080
8080
4080
2100
1B00
0600
ENDCHAR
STARTCHAR thorn
ENCODING 254
SWIDTH 520 0
DWIDTH 10 0
BBX 9 14 1 -4
BITMAP
8000
8000
8000
FF00
C180
8080
8080
E180
FF00
8000
8000
8000
8000
8000
ENDCHAR
STARTCHAR ydieresis
ENCODING 255
SWIDTH 487 0
DWIDTH 10 0
BBX 9 22 0 -10
BITMAP
2400
3600
0000
8100
8080
8080
C080
4080
4080
2180
3E80
0C80
0080
0080
0080
0080
0080
8080
4080
2100
1B00
0600
ENDCHAR
STARTCHAR Amacron
ENCODING 256
SWIDTH 562 0
DWIDTH 11 0
BBX 11 18 0 0
BITMAP
1E00
3300
0000
1E00
2100
2080
4080
4040
4040
4040
4040
7E40
C1E0
4020
4020
4020
6060
2040
ENDCHAR
STARTCHAR amacron
ENCODING 257
SWIDTH 505 0
DWIDTH 10 0
BBX 10 13 0 0
BITMAP
1E00
3200
0000
1C00
2600
0100
0180
3F80
4180
8080
8080
63C0
3F00
ENDCHAR
STARTCHAR Abreve
ENCODING 258
SWIDTH 562 0
DWIDTH 11 0
BBX 11 19 0 0
BITMAP
1100
0E00
0000
0000
1E00
2100
2080
4080
4040
4040
4040
4040
7E40
C1E0
4020
4020
4020
6060
2040
ENDCHAR
STARTCHAR abreve
ENCODING 259
SWIDTH 505 0
DWIDTH 10 0
BBX 10 13 0 0
BITMAP
1200
1C00
0000
1C00
2600
0100
0180
3F80
4180
8080
8080
63C0
3F00
ENDCHAR
STARTCHAR Aogonek
ENCODING 260
SWIDTH 562 0
DWIDTH 11 0
BBX 11 18 0 -3
BITMAP
1E00
2100
2080
4080
4040
4040
4040
4040
7E40
C1E0
4020
4020
4020
6060
20C0
0180
0100
00E0
ENDCHAR
STARTCHAR aogonek
ENCODING 261
SWIDTH 505 0
DWIDTH 10 0
BBX 10 12 0 -2
BITMAP
1C00
2600
0100
0180
3F80
4180
8080
8080
63C0
3F00
0200
0780
ENDCHAR
STARTCHAR Cacute
ENCODING 262
SWIDTH 515 0
DWIDTH 10 0
BBX 10 16 0 0
BITMAP
0200
0400
0800
0700
0D00
1200
2000
4000
4000
8000
8000
8000
4000
4000
63C0
3E00
ENDCHAR
STARTCHAR cacute
ENCODING 263
SWIDTH 449 0
DWIDTH 9 0
BBX 8 13 0 0
BITMAP
04
0C
18
00
1C
22
42
C0
80
C0
40
60
1F
ENDCHAR
STARTCHAR Ccircumflex
ENCODING 264
SWIDTH 515 0
DWIDTH 10 0
BBX 10 18 0 0
BITMAP
0400
0400
0E00
1300
2000
0700
0D00
1200
2000
4000
4000
8000
8000
8000
4000
4000
63C0
3E00
ENDCHAR
STARTCHAR ccircumflex
ENCODING 265
SWIDTH 449 0
DWIDTH 9 0
BBX 8 15 0 0
BITMAP
08
0C
1E
32
00
00
1C
22
42
C0
80
C0
40
60
1F
ENDCHAR
STARTCHAR Cdotaccent
ENCODING 266
SWIDTH 515 0
DWIDTH 10 0
BBX 10 16 0 0
BITMAP
0400
0400
0000
0700
0D00
1200
2000
4000
4000
8000
8000
8000
4000
4000
63C0
3E00
ENDCHAR
STARTCHAR cdotaccent
ENCODING 267
SWIDTH 449 0
DWIDTH 9 0
BBX 8 11 0 0
BITMAP
08
08
1C
22
42
C0
80
C0
40
60
1F
ENDCHAR
STARTCHAR Ccaron
ENCODING 268
SWIDTH 515 0
DWIDTH 10 0
BBX 10 16 0 0
BITMAP
1980
0600
0000
0700
0D00
1200
2000
4000
4000
8000
8000
8000
4000
4000
63C0
3E00
ENDCHAR
STARTCHAR ccaron
ENCODING 269
SWIDTH 449 0
DWIDTH 9 0
BBX 8 12 0 0
BITMAP
36
0C
00
1C
22
42
C0
80
C0
40
60
1F
ENDCHAR
STARTCHAR Dcaron
ENCODING 270
SWIDTH 741 0
DWIDTH 15 0
BBX 14 15 0 0
BITMAP
06C0
0180
0C00
FF80
0260
0210
0208
020C
0104
0104
0104
0104
010C
0438
07E0
ENDCHAR
STARTCHAR dcaron
ENCODING 271
SWIDTH 582 0
DWIDTH 12 0
BBX 11 15 0 0
BITMAP
0140
0120
01A0
01A0
01A0
0080
3C80
7680
4180
C0C0
C0C0
C1C0
43C0
6640
3800
ENDCHAR
STARTCHAR Dcroat
ENCODING 272
SWIDTH 741 0
DWIDTH 15 0
BBX 14 13 0 0
BITMAP
0C00
FF80
0260
0210
0208
020C
0784
0D04
0104
0104
010C
0438
07E0
ENDCHAR
STARTCHAR dcroat
ENCODING 273
SWIDTH 524 0
DWIDTH 10 0
BBX 11 15 0 0
BITMAP
0200
0100
0100
07C0
0DA0
0080
3C80
7680
4180
C0C0
C0C0
C1C0
43C0
6640
3800
ENDCHAR
STARTCHAR Emacron
ENCODING 274
SWIDTH 524 0
DWIDTH 10 0
BBX 10 15 0 0
BITMAP
1E00
3300
0000
7F80
4000
4000
4000
4780
F800
4000
8000
8000
8000
4380
7FC0
ENDCHAR
STARTCHAR emacron
ENCODING 275
SWIDTH 515 0
DWIDTH 10 0
BBX 10 13 0 0
BITMAP
1E00
3300
0000
3E00
6200
4200
C200
8C00
F800
4000
4000
3000
1FC0
ENDCHAR
STARTCHAR Ebreve
ENCODING 276
SWIDTH 524 0
DWIDTH 10 0
BBX 10 16 0 0
BITMAP
1200
0C00
0000
0000
7F80
4000
4000
4000
4780
F800
4000
8000
8000
8000
4380
7FC0
ENDCHAR
STARTCHAR ebreve
ENCODING 277
SWIDTH 515 0
DWIDTH 10 0
BBX 10 14 0 0
BITMAP
1200
0E00
0000
0000
3E00
6200
4200
C200
8C00
F800
4000
4000
3000
1FC0
ENDCHAR
STARTCHAR Edotaccent
ENCODING 278
SWIDTH 524 0
DWIDTH 10 0
BBX 10 15 0 0
BITMAP
0800
0C00
0000
7F80
4000
4000
4000
4780
F800
4000
8000
8000
8000
4380
7FC0
ENDCHAR
STARTCHAR edotaccent
ENCODING 279
SWIDTH 515 0
DWIDTH 10 0
BBX 10 13 0 0
BITMAP
0800
0800
0000
3E00
6200
4200
C200
8C00
F800
4000
4000
3000
1FC0
ENDCHAR
STARTCHAR Eogonek
ENCODING 280
SWIDTH 524 0
DWIDTH 10 0
BBX 10 15 0 -3
BITMAP
7F80
4000
4000
4000
4780
F800
4000
8000
8000
8000
4380
7FC0
0600
0400
0380
ENDCHAR
STARTCHAR eogonek
ENCODING 281
SWIDTH 515 0
DWIDTH 10 0
BBX 10 13 0 -3
BITMAP
3E00
6200
4200
C200
8C00
F800
4000
4000
3000
1FC0
0400
0400
0380
ENDCHAR
STARTCHAR Ecaron
ENCODING 282
SWIDTH 524 0
DWIDTH 10 0
BBX 10 15 0 0
BITMAP
1B00
0600
0000
7F80
4000
4000
4000
4780
F800
4000
8000
8000
8000
4380
7FC0
ENDCHAR
STARTCHAR ecaron
ENCODING 283
SWIDTH 515 0
DWIDTH 10 0
BBX 10 14 0 0
BITMAP
3B00
0400
0000
0000
3E00
6200
4200
C200
8C00
F800
4000
4000
3000
1FC0
ENDCHAR
STARTCHAR Gcircumflex
ENCODING 284
SWIDTH 571 0
DWIDTH 11 0
BBX 10 17 1 -1
BITMAP
0200
0300
0700
0D80
0000
0000
0F80
1000
6000
4000
8F80
80C0
80C0
80C0
C1C0
3EC0
00C0
ENDCHAR
STARTCHAR gcircumflex
ENCODING 285
SWIDTH 366 0
DWIDTH 7 0
BBX 10 25 -3 -10
BITMAP
0200
0300
0780
0C80
0000
0000
0000
0380
0480
08C0
0840
10C0
18C0
0FC0
0640
0040
0040
0040
0040
8040
8040
4040
7040
1F80
0700
ENDCHAR
STARTCHAR Gbreve
ENCODING 286
SWIDTH 571 0
DWIDTH 11 0
BBX 10 14 1 -1
BITMAP
1200
1C00
0000
0F80
1000
6000
4000
8F80
80C0
80C0
80C0
C1C0
3EC0
00C0
ENDCHAR
STARTCHAR gbreve
ENCODING 287
SWIDTH 366 0
DWIDTH 7 0
BBX 10 21 -3 -10
BITMAP
0900
0700
0000
0380
0480
08C0
0840
10C0
18C0
0FC0
0640
0040
0040
0040
0040
8040
8040
4040
7040
1F80
0700
ENDCHAR
STARTCHAR Gdotaccent
ENCODING 288
SWIDTH 571 0
DWIDTH 11 0
BBX 10 14 1 -1
BITMAP
0600
0200
0000
0F80
1000
6000
4000
8F80
80C0
80C0
80C0
C1C0
3EC0
00C0
ENDCHAR
STARTCHAR gdotaccent
ENCODING 289
SWIDTH 366 0
DWIDTH 7 0
BBX 10 21 -3 -10
BITMAP
0200
0200
0000
0380
0480
08C0
0840
10C0
18C0
0FC0
0640
0040
0040
0040
0040
8040
8040
4040
7040
1F80
0700
ENDCHAR
STARTCHAR Gcommaaccent
ENCODING 290
SWIDTH 571 0
DWIDTH 11 0
BBX 10 16 1 -6
BITMAP
0F80
1000
6000
4000
8F80
80C0
80C0
80C0
C1C0
3EC0
00C0
0000
0800
0800
0800
0800
ENDCHAR
STARTCHAR gcommaaccent
ENCODING 291
SWIDTH 366 0
DWIDTH 7 0
BBX 10 28 -3 -10
BITMAP
0200
0200
0200
0200
0200
0000
0000
0000
0000
0000
0380
0480
08C0
0840
10C0
18C0
0FC0
0640
0040
0040
0040
0040
8040
8040
4040
7040
1F80
0700
ENDCHAR
STARTCHAR Hcircumflex
ENCODING 292
SWIDTH 524 0
DWIDTH 10 0
BBX 10 19 0 0
BITMAP
0400
0400
0E00
1300
2000
0080
4080
4080
4080
4080
4080
4180
4E80
7880
E080
60C0
20C0
2040
2040
ENDCHAR
STARTCHAR hcircumflex
ENCODING 293
SWIDTH 427 0
DWIDTH 9 0
BBX 8 16 0 0
BITMAP
08
0C
9E
B2
80
C0
40
7C
66
42
42
41
41
61
63
23
ENDCHAR
STARTCHAR hbar
ENCODING 295
SWIDTH 427 0
DWIDTH 9 0
BBX 10 14 -2 0
BITMAP
2000
2000
2000
7C00
9000
1F00
1980
1080
1080
1040
1040
1840
18C0
08C0
ENDCHAR
STARTCHAR Itilde
ENCODING 296
SWIDTH 167 0
DWIDTH 3 0
BBX 7 14 -2 0
BITMAP
62
9C
80
20
30
10
10
10
10
18
08
08
08
08
ENDCHAR
STARTCHAR itilde
ENCODING 297
SWIDTH 174 0
DWIDTH 4 0
BBX 7 13 -1 0
BITMAP
E2
9C
80
00
20
20
20
20
30
30
10
10
10
ENDCHAR
STARTCHAR imacron
ENCODING 299
SWIDTH 174 0
DWIDTH 4 0
BBX 5 12 -1 0
BITMAP
F8
00
00
20
20
20
20
30
30
10
10
10
ENDCHAR
STARTCHAR Ibreve
ENCODING 300
SWIDTH 167 0
DWIDTH 3 0
BBX 4 15 0 0
BITMAP
90
60
00
00
80
C0
40
40
40
40
60
20
20
20
20
ENDCHAR
STARTCHAR ibreve
ENCODING 301
SWIDTH 174 0
DWIDTH 4 0
BBX 3 12 0 0
BITMAP
A0
E0
00
40
40
40
40
60
60
20
20
20
ENDCHAR
STARTCHAR Iogonek
ENCODING 302
SWIDTH 167 0
DWIDTH 3 0
BBX 4 14 0 -3
BITMAP
80
C0
40
40
40
40
60
20
20
20
60
80
80
70
ENDCHAR
STARTCHAR iogonek
ENCODING 303
SWIDTH 174 0
DWIDTH 4 0
BBX 4 15 0 -3
BITMAP
80
40
00
40
40
40
40
60
60
20
20
60
80
80
F0
ENDCHAR
STARTCHAR Idotaccent
ENCODING 304
SWIDTH 167 0
DWIDTH 3 0
BBX 3 15 0 0
BITMAP
80
80
00
00
80
C0
40
40
40
40
60
20
20
20
20
ENDCHAR
STARTCHAR dotlessi
ENCODING 305
SWIDTH 174 0
DWIDTH 4 0
BBX 2 9 1 0
BITMAP
80
80
80
80
C0
C0
40
40
40
ENDCHAR
STARTCHAR Jcircumflex
ENCODING 308
SWIDTH 439 0
DWIDTH 9 0
BBX 9 20 0 0
BITMAP
0200
0300
0780
0C80
0000
0000
0200
0200
0100
0100
0100
0100
0100
C100
4100
4100
2100
1100
0900
0600
ENDCHAR
STARTCHAR jcircumflex
ENCODING 309
SWIDTH 200 0
DWIDTH 4 0
BBX 7 24 -2 -9
BITMAP
10
18
1C
26
40
00
00
10
08
08
08
0C
0C
04
04
04
04
84
84
C4
44
64
3C
0C
ENDCHAR
STARTCHAR Kcommaaccent
ENCODING 310
SWIDTH 468 0
DWIDTH 9 0
BBX 9 18 0 -6
BITMAP
8200
8400
8800
5000
6000
6000
6000
7000
5800
4C00
4300
4180
0000
0000
0800
0800
0800
0800
ENDCHAR
STARTCHAR kcommaaccent
ENCODING 311
SWIDTH 403 0
DWIDTH 8 0
BBX 8 18 0 -6
BITMAP
80
80
80
44
48
50
70
60
60
70
5C
47
00
00
18
08
08
10
ENDCHAR
STARTCHAR Lacute
ENCODING 313
SWIDTH 346 0
DWIDTH 7 0
BBX 7 15 0 0
BITMAP
04
08
10
00
40
40
40
40
40
40
C0
80
C0
40
3E
ENDCHAR
STARTCHAR lacute
ENCODING 314
SWIDTH 120 0
DWIDTH 2 0
BBX 3 15 0 0
BITMAP
20
C0
80
00
40
40
40
40
40
40
40
40
40
40
40
ENDCHAR
STARTCHAR Lcommaaccent
ENCODING 315
SWIDTH 346 0
DWIDTH 7 0
BBX 7 17 0 -6
BITMAP
40
40
40
40
40
40
C0
80
C0
40
3E
00
00
10
10
10
10
ENDCHAR
STARTCHAR lcommaaccent
ENCODING 316
SWIDTH 120 0
DWIDTH 2 0
BBX 2 17 0 -6
BITMAP
40
40
40
40
40
40
40
40
40
40
40
00
00
C0
40
40
C0
ENDCHAR
STARTCHAR Lcaron
ENCODING 317
SWIDTH 346 0
DWIDTH 7 0
BBX 7 15 0 0
BITMAP
10
10
18
08
48
40
40
40
40
40
C0
80
C0
40
3E
ENDCHAR
STARTCHAR lcaron
ENCODING 318
SWIDTH 222 0
DWIDTH 4 0
BBX 3 15 1 0
BITMAP
40
20
20
20
A0
80
80
80
80
80
80
80
80
80
80
ENDCHAR
STARTCHAR Ldot
ENCODING 319
SWIDTH 346 0
DWIDTH 7 0
BBX 7 11 0 0
BITMAP
40
40
40
40
40
50
F8
80
C0
40
3E
ENDCHAR
STARTCHAR ldot
ENCODING 320
SWIDTH 333 0
DWIDTH 7 0
BBX 5 11 1 0
BITMAP
80
80
80
80
80
90
B8
80
80
80
80
ENDCHAR
STARTCHAR Lslash
ENCODING 321
SWIDTH 346 0
DWIDTH 7 0
BBX 7 11 0 0
BITMAP
20
20
20
20
60
70
60
C0
40
38
1E
ENDCHAR
STARTCHAR lslash
ENCODING 322
SWIDTH 120 0
DWIDTH 2 0
BBX 5 12 -1 0
BITMAP
20
20
20
20
30
38
60
A0
20
20
20
20
ENDCHAR
STARTCHAR Nacute
ENCODING 323
SWIDTH 609 0
DWIDTH 12 0
BBX 11 14 1 0
BITMAP
0400
0800
1000
8000
8080
8080
C0C0
C040
C040
A020
B060
9840
8FC0
8700
ENDCHAR
STARTCHAR nacute
ENCODING 324
SWIDTH 459 0
DWIDTH 9 0
BBX 8 14 1 0
BITMAP
18
30
60
00
00
38
C4
82
82
83
83
81
81
41
ENDCHAR
STARTCHAR Ncommaaccent
ENCODING 325
SWIDTH 609 0
DWIDTH 12 0
BBX 11 17 1 -6
BITMAP
8000
8080
8080
C0C0
C040
C040
A020
B060
9840
8FC0
8700
0000
0000
0C00
0400
0400
0C00
ENDCHAR
STARTCHAR ncommaaccent
ENCODING 326
SWIDTH 459 0
DWIDTH 9 0
BBX 8 15 1 -6
BITMAP
38
C4
82
82
83
83
81
81
41
00
00
10
10
10
10
ENDCHAR
STARTCHAR Ncaron
ENCODING 327
SWIDTH 609 0
DWIDTH 12 0
BBX 11 15 1 0
BITMAP
3B00
0C00
0000
0000
8000
8080
8080
C0C0
C040
C040
A020
B060
9840
8FC0
8700
ENDCHAR
STARTCHAR ncaron
ENCODING 328
SWIDTH 459 0
DWIDTH 9 0
BBX 8 12 1 0
BITMAP
6C
18
00
38
C4
82
82
83
83
81
81
41
ENDCHAR
STARTCHAR napostrophe
ENCODING 329
SWIDTH 459 0
DWIDTH 9 0
BBX 8 13 1 0
BITMAP
40
40
40
40
38
C4
82
82
83
83
81
81
41
ENDCHAR
STARTCHAR Omacron
ENCODING 332
SWIDTH 609 0
DWIDTH 12 0
BBX 12 14 0 0
BITMAP
0F00
0880
0000
0000
1800
6F00
4180
8040
8020
8020
4010
6020
30E0
1F80
ENDCHAR
STARTCHAR omacron
ENCODING 333
SWIDTH 487 0
DWIDTH 10 0
BBX 9 11 0 0
BITMAP
1E00
3200
0000
1E00
2300
4080
8080
8080
4180
6300
3E00
ENDCHAR
STARTCHAR Obreve
ENCODING 334
SWIDTH 609 0
DWIDTH 12 0
BBX 12 13 0 0
BITMAP
0900
0600
0000
1800
6F00
4180
8040
8020
8020
4010
6020
30E0
1F80
ENDCHAR
STARTCHAR obreve
ENCODING 335
SWIDTH 487 0
DWIDTH 10 0
BBX 9 12 0 0
BITMAP
2400
1800
0000
0000
1E00
2300
4080
8080
8080
4180
6300
3E00
ENDCHAR
STARTCHAR Ohungarumlaut
ENCODING 336
SWIDTH 609 0
DWIDTH 12 0
BBX 12 14 0 0
BITMAP
0D00
0A00
1400
0000
1800
6F00
4180
8040
8020
8020
4010
6020
30E0
1F80
ENDCHAR
STARTCHAR ohungarumlaut
ENCODING 337
SWIDTH 487 0
DWIDTH 10 0
BBX 9 11 0 0
BITMAP
1A00
3400
0800
1E00
2300
4080
8080
8080
4180
6300
3E00
ENDCHAR
STARTCHAR OE
ENCODING 338
SWIDTH 848 0
DWIDTH 17 0
BBX 17 10 0 0
BITMAP
180000
66FF00
438000
818000
81BF00
81C000
418000
618000
318000
0EFF80
ENDCHAR
STARTCHAR oe
ENCODING 339
SWIDTH 875 0
DWIDTH 18 0
BBX 17 11 0 -1
BITMAP
001800
006400
1F4200
618200
408600
80FC00
808000
418000
634000
3E3F80
000E00
ENDCHAR
STARTCHAR Racute
ENCODING 340
SWIDTH 579 0
DWIDTH 12 0
BBX 11 17 0 -1
BITMAP
0100
0600
0400
0000
FF80
80C0
A040
2060
33C0
1E00
1000
1800
1400
1200
1100
08C0
0060
ENDCHAR
STARTCHAR racute
ENCODING 341
SWIDTH 346 0
DWIDTH 7 0
BBX 7 13 0 0
BITMAP
08
18
20
00
3C
C2
C0
40
40
40
40
60
20
ENDCHAR
STARTCHAR Rcommaaccent
ENCODING 342
SWIDTH 579 0
DWIDTH 12 0
BBX 11 18 0 -6
BITMAP
FF80
80C0
A040
2060
33C0
1E00
1000
1800
1400
1200
1100
08C0
0060
0000
0400
0600
0600
0400
ENDCHAR
STARTCHAR rcommaaccent
ENCODING 343
SWIDTH 346 0
DWIDTH 7 0
BBX 7 15 0 -6
BITMAP
3C
C2
C0
40
40
40
40
60
20
00
00
10
10
10
10
ENDCHAR
STARTCHAR Rcaron
ENCODING 344
SWIDTH 579 0
DWIDTH 12 0
BBX 11 17 0 -1
BITMAP
1900
0600
0000
0000
FF80
80C0
A040
2060
33C0
1E00
1000
1800
1400
1200
1100
08C0
0060
ENDCHAR
STARTCHAR rcaron
ENCODING 345
SWIDTH 346 0
DWIDTH 7 0
BBX 7 12 0 0
BITMAP
6C
18
00
3C
C2
C0
40
40
40
40
60
20
ENDCHAR
STARTCHAR Sacute
ENCODING 346
SWIDTH 627 0
DWIDTH 13 0
BBX 12 16 0 0
BITMAP
0100
0600
0400
0000
0F80
1060
1000
1000
0800
0600
0180
8060
C010
4010
3030
0FE0
ENDCHAR
STARTCHAR sacute
ENCODING 347
SWIDTH 514 0
DWIDTH 10 0
BBX 10 14 0 0
BITMAP
0200
0400
0800
0000
0000
3C00
4200
4200
6000
1F00
0080
80C0
60C0
3F80
ENDCHAR
STARTCHAR Scircumflex
ENCODING 348
SWIDTH 627 0
DWIDTH 13 0
BBX 12 18 0 0
BITMAP
0200
0300
0700
0D80
0000
0000
0F80
1060
1000
1000
0800
0600
0180
8060
C010
4010
3030
0FE0
ENDCHAR
STARTCHAR scircumflex
ENCODING 349
SWIDTH 514 0
DWIDTH 10 0
BBX 10 15 0 0
BITMAP
0400
0400
0E00
1300
2000
0000
3C00
4200
4200
6000
1F00
0080
80C0
60C0
3F80
ENDCHAR
STARTCHAR Scedilla
ENCODING 350
SWIDTH 627 0
DWIDTH 13 0
BBX 12 18 0 -6
BITMAP
0F80
1060
1000
1000
0800
0600
0180
8060
C010
4010
3030
0FE0
0800
0800
0700
0080
0880
0700
ENDCHAR
STARTCHAR scedilla
ENCODING 351
SWIDTH 514 0
DWIDTH 10 0
BBX 10 15 0 -6
BITMAP
3C00
4200
4200
6000
1F00
0080
80C0
60C0
3F80
1000
1000
0E00
0100
1100
0E00
ENDCHAR
STARTCHAR Scaron
ENCODING 352
SWIDTH 627 0
DWIDTH 13 0
BBX 12 15 0 0
BITMAP
0D80
0300
0000
0F80
1060
1000
1000
0800
0600
0180
8060
C010
4010
3030
0FE0
ENDCHAR
STARTCHAR scaron
ENCODING 353
SWIDTH 514 0
DWIDTH 10 0
BBX 10 12 0 0
BITMAP
3B00
0400
0000
3C00
4200
4200
6000
1F00
0080
80C0
60C0
3F80
ENDCHAR
STARTCHAR Tcommaaccent
ENCODING 354
SWIDTH 581 0
DWIDTH 12 0
BBX 13 18 0 -6
BITMAP
FFF0
0218
0200
0200
0200
0300
0100
0100
0100
0100
0180
0180
0000
0000
0100
0180
0180
0100
ENDCHAR
STARTCHAR tcommaaccent
ENCODING 355
SWIDTH 328 0
DWIDTH 7 0
BBX 6 18 0 -6
BITMAP
30
10
10
30
FC
10
10
10
10
10
10
10
00
00
10
30
10
30
ENDCHAR
STARTCHAR Tcaron
ENCODING 356
SWIDTH 581 0
DWIDTH 12 0
BBX 13 15 0 0
BITMAP
1980
0600
0000
FFF0
0218
0200
0200
0200
0300
0100
0100
0100
0100
0180
0180
ENDCHAR
STARTCHAR tcaron
ENCODING 357
SWIDTH 431 0
DWIDTH 9 0
BBX 8 15 0 0
BITMAP
02
01
01
31
11
10
30
FC
10
10
10
10
10
10
10
ENDCHAR
STARTCHAR Utilde
ENCODING 360
SWIDTH 571 0
DWIDTH 11 0
BBX 10 14 1 0
BITMAP
3100
4E00
4000
8100
8100
8100
8100
8100
8080
8080
8080
41C0
6640
3800
ENDCHAR
STARTCHAR utilde
ENCODING 361
SWIDTH 501 0
DWIDTH 10 0
BBX 10 13 0 0
BITMAP
1880
2700
2000
8000
C100
8100
8100
4180
4180
4380
2680
1CC0
0040
ENDCHAR
STARTCHAR Umacron
ENCODING 362
SWIDTH 571 0
DWIDTH 11 0
BBX 10 14 1 0
BITMAP
1E00
3200
0000
8100
8100
8100
8100
8100
8080
8080
8080
41C0
6640
3800
ENDCHAR
STARTCHAR umacron
ENCODING 363
SWIDTH 501 0
DWIDTH 10 0
BBX 10 12 0 0
BITMAP
1E00
3200
8000
C100
8100
8100
4180
4180
4380
2680
1CC0
0040
ENDCHAR
STARTCHAR Ubreve
ENCODING 364
SWIDTH 571 0
DWIDTH 11 0
BBX 10 13 1 0
BITMAP
1200
1C00
8100
8100
8100
8100
8100
8080
8080
8080
41C0
6640
3800
ENDCHAR
STARTCHAR ubreve
ENCODING 365
SWIDTH 501 0
DWIDTH 10 0
BBX 10 12 0 0
BITMAP
2400
1C00
8000
C100
8100
8100
4180
4180
4380
2680
1CC0
0040
ENDCHAR
STARTCHAR Uring
ENCODING 366
SWIDTH 571 0
DWIDTH 11 0
BBX 10 14 1 0
BITMAP
1C00
2400
1C00
8100
8100
8100
8100
8100
8080
8080
8080
41C0
6640
3800
ENDCHAR
STARTCHAR uring
ENCODING 367
SWIDTH 501 0
DWIDTH 10 0
BBX 10 11 0 0
BITMAP
1C00
9200
DD00
8100
8100
4180
4180
4380
2680
1CC0
0040
ENDCHAR
STARTCHAR Uhungarumlaut
ENCODING 368
SWIDTH 571 0
DWIDTH 11 0
BBX 10 14 1 0
BITMAP
1600
2C00
0800
8100
8100
8100
8100
8100
8080
8080
8080
41C0
6640
3800
ENDCHAR
STARTCHAR uhungarumlaut
ENCODING 369
SWIDTH 501 0
DWIDTH 10 0
BBX 10 13 0 0
BITMAP
0D00
1600
0400
8000
C100
8100
8100
4180
4180
4380
2680
1CC0
0040
ENDCHAR
STARTCHAR Uogonek
ENCODING 370
SWIDTH 571 0
DWIDTH 11 0
BBX 11 13 1 -3
BITMAP
C100
8180
8180
8180
8080
8080
8080
80C0
41C0
7640
3980
0100
01E0
ENDCHAR
STARTCHAR uogonek
ENCODING 371
SWIDTH 501 0
DWIDTH 10 0
BBX 10 12 0 -3
BITMAP
C000
8100
8100
C180
4180
4180
2280
3C80
01C0
0100
0300
00C0
ENDCHAR
STARTCHAR Wcircumflex
ENCODING 372
SWIDTH 703 0
DWIDTH 14 0
BBX 14 18 0 0
BITMAP
0100
0300
0380
04C0
0800
0000
0000
0000
8010
8018
8018
8008
C208
C20C
4204
4708
7D98
3070
ENDCHAR
STARTCHAR wcircumflex
ENCODING 373
SWIDTH 656 0
DWIDTH 13 0
BBX 13 15 0 0
BITMAP
0200
0300
0780
0C80
0000
0000
0000
4000
C030
8210
8210
C218
4318
6DB0
38E0
ENDCHAR
STARTCHAR Ycircumflex
ENCODING 374
SWIDTH 403 0
DWIDTH 8 0
BBX 8 18 0 0
BITMAP
08
18
1C
26
40
80
C1
41
22
1A
0E
04
04
0C
08
08
08
08
ENDCHAR
STARTCHAR ycircumflex
ENCODING 375
SWIDTH 487 0
DWIDTH 10 0
BBX 9 25 0 -10
BITMAP
0800
0C00
0E00
1300
2000
0000
8100
8080
8080
C080
4080
4080
2180
3E80
0C80
0080
0080
0080
0080
0080
8080
4080
2100
1B00
0600
ENDCHAR
STARTCHAR Ydieresis
ENCODING 376
SWIDTH 403 0
DWIDTH 8 0
BBX 8 16 0 0
BITMAP
24
36
00
80
C1
41
22
1A
0E
04
04
0C
08
08
08
08
ENDCHAR
STARTCHAR Zacute
ENCODING 377
SWIDTH 571 0
DWIDTH 11 0
BBX 11 17 0 0
BITMAP
0200
0600
0800
0000
0000
FE00
0300
0100
0100
0100
07C0
3F80
0400
0400
0800
18E0
0F80
ENDCHAR
STARTCHAR zacute
ENCODING 378
SWIDTH 459 0
DWIDTH 9 0
BBX 9 14 0 0
BITMAP
0400
1800
1000
0000
7C00
C200
0200
0400
0F00
7800
1000
3000
3380
3E00
ENDCHAR
STARTCHAR Zdotaccent
ENCODING 379
SWIDTH 571 0
DWIDTH 11 0
BBX 11 15 0 0
BITMAP
0800
0800
0000
FE00
0300
0100
0100
0100
07C0
3F80
0400
0400
0800
18E0
0F80
ENDCHAR
STARTCHAR zdotaccent
ENCODING 380
SWIDTH 459 0
DWIDTH 9 0
BBX 9 13 0 0
BITMAP
0800
0800
0000
7C00
C200
0200
0400
0F00
7800
1000
3000
3380
3E00
ENDCHAR
STARTCHAR Zcaron
ENCODING 381
SWIDTH 571 0
DWIDTH 11 0
BBX 11 16 0 0
BITMAP
3300
0C00
0000
0000
FE00
0300
0100
0100
0100
07C0
3F80
0400
0400
0800
18E0
0F80
ENDCHAR
STARTCHAR zcaron
ENCODING 382
SWIDTH 459 0
DWIDTH 9 0
BBX 9 14 0 0
BITMAP
6400
1800
0000
0000
7C00
C200
0200
0400
0F00
7800
1000
3000
3380
3E00
ENDCHAR
STARTCHAR florin
ENCODING 402
SWIDTH 376 0
DWIDTH 8 0
BBX 11 19 -2 -5
BITMAP
0380
0460
0C20
0800
0800
0800
0800
0C00
3F80
0800
0800
0800
0800
0800
0800
8800
C800
6800
1800
ENDCHAR
STARTCHAR AEacute
ENCODING 508
SWIDTH 960 0
DWIDTH 19 0
BBX 19 17 0 0
BITMAP
001000
002000
1E4000
210000
208000
40BFC0
406000
406000
406000
4063C0
7E7C00
C1E000
402000
402000
402000
6061E0
205FC0
ENDCHAR
STARTCHAR aeacute
ENCODING 509
SWIDTH 881 0
DWIDTH 18 0
BBX 17 14 0 0
BITMAP
002000
00C000
008000
000000
1C1C00
266600
014200
018200
3F8600
41B800
808000
804000
63E000
3F3F80
ENDCHAR
STARTCHAR Oslashacute
ENCODING 510
SWIDTH 609 0
DWIDTH 12 0
BBX 12 16 0 -2
BITMAP
0200
0400
0800
0000
1900
6F00
4180
8240
8220
8220
4410
6420
38E0
1F80
1800
1000
ENDCHAR
STARTCHAR oslashacute
ENCODING 511
SWIDTH 487 0
DWIDTH 10 0
BBX 9 12 0 0
BITMAP
0600
0C00
1800
0000
1F80
6100
4280
8680
8C80
4980
7300
3E00
ENDCHAR
STARTCHAR Scommaaccent
ENCODING 536
SWIDTH 627 0
DWIDTH 13 0
BBX 12 18 0 -6
BITMAP
0F80
1060
1000
1000
0800
0600
0180
8060
C010
4010
3030
0FE0
0000
0000
0400
0600
0600
0400
ENDCHAR
STARTCHAR scommaaccent
ENCODING 537
SWIDTH 514 0
DWIDTH 10 0
BBX 10 15 0 -6
BITMAP
3C00
4200
4200
6000
1F00
0080
80C0
60C0
3F80
0000
0000
0C00
0400
0400
0C00
ENDCHAR
STARTCHAR circumflex
ENCODING 710
SWIDTH 375 0
DWIDTH 8 0
BBX 5 4 1 11
BITMAP
20
30
78
C8
ENDCHAR
STARTCHAR caron
ENCODING 711
SWIDTH 375 0
DWIDTH 8 0
BBX 5 2 1 10
BITMAP
C8
30
ENDCHAR
STARTCHAR breve
ENCODING 728
SWIDTH 224 0
DWIDTH 5 0
BBX 4 2 0 8
BITMAP
90
70
ENDCHAR
STARTCHAR dotaccent
ENCODING 729
SWIDTH 152 0
DWIDTH 3 0
BBX 1 2 1 9
BITMAP
80
80
ENDCHAR
STARTCHAR ring
ENCODING 730
SWIDTH 333 0
DWIDTH 7 0
BBX 3 3 2 8
BITMAP
E0
A0
E0
ENDCHAR
STARTCHAR ogonek
ENCODING 731
SWIDTH 254 0
DWIDTH 5 0
BBX 4 4 1 -3
BITMAP
40
80
80
F0
ENDCHAR
STARTCHAR tilde
ENCODING 732
SWIDTH 402 0
DWIDTH 8 0
BBX 7 3 0 8
BITMAP
62
9E
80
ENDCHAR
STARTCHAR hungarumlaut
ENCODING 733
SWIDTH 264 0
DWIDTH 5 0
BBX 4 3 1 8
BITMAP
D0
A0
40
ENDCHAR
STARTCHAR Wgrave
ENCODING 7808
SWIDTH 703 0
DWIDTH 14 0
BBX 14 14 0 0
BITMAP
0300
0180
0000
0000
8010
8018
8018
8008
C208
C20C
4204
4708
7D98
3070
ENDCHAR
STARTCHAR wgrave
ENCODING 7809
SWIDTH 656 0
DWIDTH 13 0
BBX 13 11 0 0
BITMAP
0600
0100
0000
4000
C030
8210
8210
C218
4318
6DB0
38E0
ENDCHAR
STARTCHAR Wacute
ENCODING 7810
SWIDTH 703 0
DWIDTH 14 0
BBX 14 14 0 0
BITMAP
0100
0200
0400
0000
8010
8018
8018
8008
C208
C20C
4204
4708
7D98
3070
ENDCHAR
STARTCHAR wacute
ENCODING 7811
SWIDTH 656 0
DWIDTH 13 0
BBX 13 13 0 0
BITMAP
0100
0200
0400
0000
0000
4000
C030
8210
8210
C218
4318
6DB0
38E0
ENDCHAR
STARTCHAR Wdieresis
ENCODING 7812
SWIDTH 703 0
DWIDTH 14 0
BBX 14 14 0 0
BITMAP
0880
0CC0
0000
0000
8010
8018
8018
8008
C208
C20C
4204
4708
7D98
3070
ENDCHAR
STARTCHAR wdieresis
ENCODING 7813
SWIDTH 656 0
DWIDTH 13 0
BBX 13 11 0 0
BITMAP
0900
0D80
0000
4000
C030
8210
8210
C218
4318
6DB0
38E0
ENDCHAR
STARTCHAR Ygrave
ENCODING 7922
SWIDTH 403 0
DWIDTH 8 0
BBX 8 16 0 0
BITMAP
10
08
00
80
C1
41
22
1A
0E
04
04
0C
08
08
08
08
ENDCHAR
STARTCHAR ygrave
ENCODING 7923
SWIDTH 487 0
DWIDTH 10 0
BBX 9 21 0 -10
BITMAP
0800
0400
8100
8080
8080
C080
4080
4080
2180
3E80
0C80
0080
0080
0080
0080
0080
8080
4080
2100
1B00
0600
ENDCHAR
STARTCHAR endash
ENCODING 8211
SWIDTH 287 0
DWIDTH 6 0
BBX 5 1 0 5
BITMAP
F8
ENDCHAR
STARTCHAR emdash
ENCODING 8212
SWIDTH 512 0
DWIDTH 10 0
BBX 10 1 0 5
BITMAP
FFC0
ENDCHAR
STARTCHAR quoteleft
ENCODING 8216
SWIDTH 102 0
DWIDTH 2 0
BBX 2 5 0 10
BITMAP
80
80
C0
40
40
ENDCHAR
STARTCHAR quoteright
ENCODING 8217
SWIDTH 102 0
DWIDTH 2 0
BBX 2 5 0 10
BITMAP
80
80
C0
40
40
ENDCHAR
STARTCHAR quotesinglbase
ENCODING 8218
SWIDTH 102 0
DWIDTH 2 0
BBX 2 5 0 -1
BITMAP
80
C0
40
40
40
ENDCHAR
STARTCHAR quotedblleft
ENCODING 8220
SWIDTH 234 0
DWIDTH 5 0
BBX 4 6 0 10
BITMAP
10
90
90
50
50
50
ENDCHAR
STARTCHAR quotedblright
ENCODING 8221
SWIDTH 234 0
DWIDTH 5 0
BBX 4 6 0 10
BITMAP
10
90
90
50
50
50
ENDCHAR
STARTCHAR quotedblbase
ENCODING 8222
SWIDTH 341 0
DWIDTH 7 0
BBX 4 7 1 -3
BITMAP
10
90
50
50
50
50
30
ENDCHAR
STARTCHAR dagger
ENCODING 8224
SWIDTH 375 0
DWIDTH 8 0
BBX 7 13 0 0
BITMAP
20
10
10
10
3C
7E
88
08
08
08
08
08
08
ENDCHAR
STARTCHAR daggerdbl
ENCODING 8225
SWIDTH 375 0
DWIDTH 8 0
BBX 9 15 -1 0
BITMAP
0800
1800
0800
0800
0800
7F00
FC80
0400
FF80
0400
0400
0400
0400
0400
0400
ENDCHAR
STARTCHAR bullet
ENCODING 8226
SWIDTH 341 0
DWIDTH 7 0
BBX 4 4 2 3
BITMAP
60
F0
E0
40
ENDCHAR
STARTCHAR ellipsis
ENCODING 8230
SWIDTH 612 0
DWIDTH 12 0
BBX 11 4 1 0
BITMAP
4440
CCE0
EEE0
CCC0
ENDCHAR
STARTCHAR guilsinglleft
ENCODING 8249
SWIDTH 487 0
DWIDTH 10 0
BBX 9 8 0 0
BITMAP
0180
0200
0C00
1000
6000
C000
7E00
0180
ENDCHAR
STARTCHAR guilsinglright
ENCODING 8250
SWIDTH 403 0
DWIDTH 8 0
BBX 7 9 1 0
BITMAP
80
70
1E
06
0C
18
30
C0
80
ENDCHAR
STARTCHAR fraction
ENCODING 8260
SWIDTH 309 0
DWIDTH 6 0
BBX 6 15 0 0
BITMAP
04
04
04
08
08
18
10
10
30
20
20
60
40
C0
80
ENDCHAR
STARTCHAR Euro
ENCODING 8364
SWIDTH 741 0
DWIDTH 15 0
BBX 14 14 0 0
BITMAP
0038
00C8
0100
03C0
FFE0
0400
0800
0FE0
F800
0800
0800
0800
0C3C
07F0
ENDCHAR
STARTCHAR trademark
ENCODING 8482
SWIDTH 1116 0
DWIDTH 22 0
BBX 22 12 0 0
BITMAP
FFFC08
021C18
020618
020738
0205C8
030408
010408
010408
010408
01040C
01840C
01800C
ENDCHAR
STARTCHAR minus
ENCODING 8722
SWIDTH 287 0
DWIDTH 6 0
BBX 5 1 0 5
BITMAP
F8
ENDCHAR
STARTCHAR commaaccent
ENCODING 63171
SWIDTH 375 0
DWIDTH 8 0
BBX 2 4 2 -6
BITMAP
C0
40
40
C0
ENDCHAR
STARTCHAR fi
ENCODING 64257
SWIDTH 551 0
DWIDTH 11 0
BBX 9 14 0 0
BITMAP
0E00
1180
2480
2200
2000
2000
2100
3100
FF00
1100
1100
0900
0D80
0580
ENDCHAR
STARTCHAR fl
ENCODING 64258
SWIDTH 723 0
DWIDTH 14 0
BBX 9 14 0 0
BITMAP
0E00
1180
2080
2200
2300
2300
2300
3300
FF00
1300
1300
0B00
0F00
0600
ENDCHAR
STARTCHAR .notdef
ENCODING -1
SWIDTH 375 0
DWIDTH 8 0
BBX 1 1 0 0
BITMAP
00
ENDCHAR
STARTCHAR .null
ENCODING -1
SWIDTH 0 0
DWIDTH 0 0
BBX 1 1 0 0
BITMAP
00
ENDCHAR
STARTCHAR nonmarkingreturn
ENCODING -1
SWIDTH 375 0
DWIDTH 8 0
BBX 1 1 0 0
BITMAP
00
ENDCHAR
ENDFONT
